# xmcd
#
# Track frame offsets: 
#        150
#        10769
#        23382
#        35171
#        45517
#
# Disc length: 776 seconds
#
# Revision: 0
# Processed by: cddbd v1.5.2PL0 Copyright (c) Steve Scherf et al.
# Submitted via: ExactAudioCopy v0.95b3
#
DISCID=2d030605
DTITLE=La Metropolis - Country Music
DYEAR=1900
DGENRE=Country
TTITLE0=En Las Vías Sin Final
TTITLE1=Noche A La Luz De La Pasión
TTITLE2=Rawhide (F.Laine)
TTITLE3=Tratando
TTITLE4=Los Fracasos Del Reloj
EXTD=
EXTT0=
EXTT1=
EXTT2=
EXTT3=
EXTT4=
PLAYORDER=
